<svg xmlns="http://www.w3.org/2000/svg" width="220" height="215" viewBox="0 0 220 215" version="1.1"><path d="M 155.179 33.953 C 152.429 36.126, 148.468 39.951, 146.378 42.453 L 142.576 47 109.676 47 L 76.776 47 69.599 39.634 C 65.652 35.583, 61.373 31.936, 60.090 31.528 C 58.331 30.970, 57.188 31.367, 55.443 33.144 C 54.171 34.440, 51.353 39.100, 49.183 43.500 C 47.012 47.900, 43.621 55.833, 41.647 61.129 C 39.673 66.425, 36.713 75.425, 35.070 81.129 C 33.426 86.833, 31.388 95.496, 30.541 100.381 C 29.693 105.266, 29 110.808, 29 112.697 C 29 114.586, 28.543 116.986, 27.984 118.031 C 27.380 119.159, 24.331 120.744, 20.472 121.936 C 16.899 123.039, 13.082 124.421, 11.988 125.006 C 10.895 125.592, 10 126.714, 10 127.500 C 10 128.286, 10.870 129.395, 11.934 129.965 C 12.998 130.534, 17.637 131, 22.243 131 C 27.690 131, 31.262 131.471, 32.462 132.348 C 33.476 133.090, 34.007 134.179, 33.642 134.770 C 33.278 135.360, 31.071 136.529, 28.740 137.367 C 26.408 138.206, 21.940 139.596, 18.811 140.456 C 15.683 141.316, 12.420 142.723, 11.561 143.582 C 10.703 144.440, 10 145.526, 10 145.994 C 10 146.462, 11.588 147.369, 13.530 148.010 C 15.853 148.776, 19.921 148.936, 25.431 148.477 C 30.794 148.030, 35.020 148.182, 37.191 148.898 C 39.054 149.513, 44.835 153.163, 50.039 157.010 C 55.243 160.857, 63.605 166.054, 68.622 168.559 C 73.639 171.064, 80.164 173.765, 83.122 174.562 C 86.080 175.359, 93.900 176.287, 100.500 176.625 C 107.380 176.977, 117.407 176.739, 124 176.069 C 130.325 175.425, 137.525 174.413, 140 173.820 C 142.475 173.227, 148.100 171.077, 152.500 169.042 C 157.192 166.873, 164.222 162.331, 169.500 158.059 C 174.450 154.053, 179.625 150.308, 181 149.736 C 182.375 149.165, 188 148.610, 193.500 148.503 C 199 148.397, 204.512 147.985, 205.750 147.587 C 206.988 147.190, 208 146.231, 208 145.456 C 208 144.680, 206.982 143.379, 205.738 142.564 C 204.494 141.749, 200.420 140.138, 196.685 138.984 C 192.950 137.831, 189.637 136.218, 189.323 135.400 C 189.010 134.583, 189.042 133.624, 189.396 133.271 C 189.750 132.917, 193.696 132.149, 198.166 131.564 C 204.152 130.780, 206.583 130.024, 207.396 128.691 C 208.276 127.250, 208.115 126.597, 206.601 125.472 C 205.557 124.697, 202.407 123.322, 199.601 122.418 C 196.796 121.514, 193.975 120.116, 193.333 119.310 C 192.692 118.505, 191.870 113.943, 191.507 109.173 C 191.144 104.403, 189.743 95.797, 188.394 90.049 C 187.046 84.301, 184.777 75.779, 183.353 71.110 C 181.929 66.442, 178.801 57.938, 176.402 52.212 C 174.004 46.487, 171.059 40.159, 169.859 38.151 C 168.658 36.143, 166.771 33.487, 165.664 32.250 C 164.557 31.012, 162.870 30, 161.915 30 C 160.961 30, 157.929 31.779, 155.179 33.953 M 155.958 47.621 C 153.506 50.162, 149.475 53.200, 147 54.371 C 142.788 56.364, 140.635 56.521, 113.331 56.829 C 89.270 57.100, 83.086 56.881, 78.018 55.583 C 74.638 54.717, 69.897 52.649, 67.481 50.987 C 65.065 49.325, 62.464 47.073, 61.700 45.982 C 60.381 44.099, 60.232 44.087, 58.743 45.749 C 57.880 46.712, 55.982 50.200, 54.525 53.500 C 53.068 56.800, 49.907 65.830, 47.502 73.568 C 45.096 81.305, 42.425 90.666, 41.566 94.371 C 40.707 98.076, 39.722 104.144, 39.377 107.857 C 38.858 113.435, 39.044 114.901, 40.446 116.303 C 41.656 117.513, 43.826 118, 48.006 118 C 51.231 118, 55.024 118.439, 56.435 118.975 C 57.846 119.512, 59 120.558, 59 121.301 C 59 122.044, 57.890 123.694, 56.533 124.969 C 54.849 126.551, 52.441 127.443, 48.949 127.779 C 45.854 128.076, 43.621 128.824, 43.295 129.672 C 43 130.444, 43.507 131.902, 44.422 132.914 C 45.402 133.997, 48.220 135.037, 51.269 135.441 C 54.118 135.819, 57.024 136.605, 57.725 137.187 C 58.426 137.769, 59 139.086, 59 140.114 C 59 141.142, 58.100 142.545, 57 143.232 C 55.900 143.919, 55 145.006, 55 145.648 C 55 146.290, 57.217 148.808, 59.927 151.245 C 62.638 153.681, 68.286 157.348, 72.480 159.393 C 76.674 161.439, 84.245 164.062, 89.303 165.222 C 96.088 166.779, 101.778 167.326, 111 167.307 C 118.983 167.291, 126.391 166.658, 131.500 165.556 C 135.900 164.608, 142.706 162.501, 146.625 160.875 C 150.544 159.248, 156.814 155.799, 160.558 153.209 C 164.303 150.619, 167.508 148.050, 167.680 147.500 C 167.853 146.950, 166.346 145.600, 164.331 144.500 C 162.316 143.400, 160.180 141.686, 159.584 140.691 C 158.725 139.258, 158.899 138.587, 160.424 137.454 C 161.482 136.668, 163.957 135.787, 165.924 135.494 C 167.891 135.202, 171.300 134.409, 173.500 133.732 C 176.423 132.832, 177.500 131.961, 177.500 130.500 C 177.500 128.790, 176.629 128.411, 171.500 127.887 C 168.200 127.551, 164.252 126.686, 162.726 125.966 C 161.200 125.246, 159.677 123.561, 159.341 122.221 C 158.953 120.676, 159.236 119.451, 160.115 118.872 C 160.888 118.362, 165.806 118.245, 171.250 118.608 L 181 119.258 181 110.569 C 181 104.923, 180.120 97.962, 178.486 90.690 C 177.104 84.536, 174.588 75.225, 172.896 70 C 171.203 64.775, 167.985 56.563, 165.744 51.750 C 163.502 46.938, 161.387 43, 161.042 43 C 160.698 43, 158.410 45.079, 155.958 47.621 M 74.923 95.923 C 72.831 98.015, 72 99.819, 72 102.268 C 72 104.313, 72.736 106.356, 73.829 107.345 C 74.835 108.255, 77.249 109, 79.194 109 C 81.257 109, 83.828 108.137, 85.365 106.927 C 87.272 105.428, 88 103.932, 88 101.516 C 88 99.016, 87.228 97.528, 84.923 95.589 C 83.231 94.165, 80.946 93, 79.846 93 C 78.746 93, 76.531 94.315, 74.923 95.923 M 136.747 94.984 C 135.360 96.075, 133.923 98.170, 133.555 99.638 C 133.186 101.106, 133.438 103.642, 134.113 105.274 C 134.811 106.957, 136.644 108.788, 138.351 109.506 C 140.498 110.408, 142.176 110.486, 144.210 109.777 C 145.778 109.230, 147.722 107.504, 148.530 105.941 C 149.339 104.378, 150 102.142, 150 100.973 C 150 99.803, 148.685 97.531, 147.077 95.923 C 145.442 94.288, 143.078 93, 141.712 93 C 140.369 93, 138.135 93.893, 136.747 94.984 M 102.139 118.936 C 100.291 119.407, 98.107 120.465, 97.286 121.286 C 96.232 122.339, 95.999 123.720, 96.494 125.974 C 96.880 127.732, 99.100 131.156, 101.427 133.585 C 103.753 136.013, 106.567 138, 107.679 138 C 108.792 138, 111.231 137.488, 113.101 136.861 C 114.970 136.235, 117.555 134.773, 118.845 133.611 C 120.135 132.450, 121.859 130.214, 122.676 128.642 C 123.495 127.069, 123.896 124.723, 123.570 123.421 C 123.243 122.121, 122.059 120.567, 120.937 119.966 C 119.816 119.366, 115.884 118.696, 112.199 118.477 C 108.515 118.258, 103.988 118.465, 102.139 118.936" stroke="none" fill="#f6f6f6" fill-rule="evenodd"/><path d="M 0 107.504 L 0 215.009 110.250 214.754 L 220.500 214.500 220.755 107.250 L 221.009 -0 110.505 -0 L 0 0 0 107.504 M 0.482 108 C 0.482 167.125, 0.603 191.313, 0.750 161.750 C 0.897 132.187, 0.897 83.812, 0.750 54.250 C 0.603 24.687, 0.482 48.875, 0.482 108 M 155.179 33.953 C 152.429 36.126, 148.468 39.951, 146.378 42.453 L 142.576 47 109.676 47 L 76.776 47 69.599 39.634 C 65.652 35.583, 61.373 31.936, 60.090 31.528 C 58.331 30.970, 57.188 31.367, 55.443 33.144 C 54.171 34.440, 51.353 39.100, 49.183 43.500 C 47.012 47.900, 43.621 55.833, 41.647 61.129 C 39.673 66.425, 36.713 75.425, 35.070 81.129 C 33.426 86.833, 31.388 95.496, 30.541 100.381 C 29.693 105.266, 29 110.808, 29 112.697 C 29 114.586, 28.543 116.986, 27.984 118.031 C 27.380 119.159, 24.331 120.744, 20.472 121.936 C 16.899 123.039, 13.082 124.421, 11.988 125.006 C 10.895 125.592, 10 126.714, 10 127.500 C 10 128.286, 10.870 129.395, 11.934 129.965 C 12.998 130.534, 17.637 131, 22.243 131 C 27.690 131, 31.262 131.471, 32.462 132.348 C 33.476 133.090, 34.007 134.179, 33.642 134.770 C 33.278 135.360, 31.071 136.529, 28.740 137.367 C 26.408 138.206, 21.940 139.596, 18.811 140.456 C 15.683 141.316, 12.420 142.723, 11.561 143.582 C 10.703 144.440, 10 145.526, 10 145.994 C 10 146.462, 11.588 147.369, 13.530 148.010 C 15.853 148.776, 19.921 148.936, 25.431 148.477 C 30.794 148.030, 35.020 148.182, 37.191 148.898 C 39.054 149.513, 44.835 153.163, 50.039 157.010 C 55.243 160.857, 63.605 166.054, 68.622 168.559 C 73.639 171.064, 80.164 173.765, 83.122 174.562 C 86.080 175.359, 93.900 176.287, 100.500 176.625 C 107.380 176.977, 117.407 176.739, 124 176.069 C 130.325 175.425, 137.525 174.413, 140 173.820 C 142.475 173.227, 148.100 171.077, 152.500 169.042 C 157.192 166.873, 164.222 162.331, 169.500 158.059 C 174.450 154.053, 179.625 150.308, 181 149.736 C 182.375 149.165, 188 148.610, 193.500 148.503 C 199 148.397, 204.512 147.985, 205.750 147.587 C 206.988 147.190, 208 146.231, 208 145.456 C 208 144.680, 206.982 143.379, 205.738 142.564 C 204.494 141.749, 200.420 140.138, 196.685 138.984 C 192.950 137.831, 189.637 136.218, 189.323 135.400 C 189.010 134.583, 189.042 133.624, 189.396 133.271 C 189.750 132.917, 193.696 132.149, 198.166 131.564 C 204.152 130.780, 206.583 130.024, 207.396 128.691 C 208.276 127.250, 208.115 126.597, 206.601 125.472 C 205.557 124.697, 202.407 123.322, 199.601 122.418 C 196.796 121.514, 193.975 120.116, 193.333 119.310 C 192.692 118.505, 191.870 113.943, 191.507 109.173 C 191.144 104.403, 189.743 95.797, 188.394 90.049 C 187.046 84.301, 184.777 75.779, 183.353 71.110 C 181.929 66.442, 178.801 57.938, 176.402 52.212 C 174.004 46.487, 171.059 40.159, 169.859 38.151 C 168.658 36.143, 166.771 33.487, 165.664 32.250 C 164.557 31.012, 162.870 30, 161.915 30 C 160.961 30, 157.929 31.779, 155.179 33.953 M 155.958 47.621 C 153.506 50.162, 149.475 53.200, 147 54.371 C 142.788 56.364, 140.635 56.521, 113.331 56.829 C 89.270 57.100, 83.086 56.881, 78.018 55.583 C 74.638 54.717, 69.897 52.649, 67.481 50.987 C 65.065 49.325, 62.464 47.073, 61.700 45.982 C 60.381 44.099, 60.232 44.087, 58.743 45.749 C 57.880 46.712, 55.982 50.200, 54.525 53.500 C 53.068 56.800, 49.907 65.830, 47.502 73.568 C 45.096 81.305, 42.425 90.666, 41.566 94.371 C 40.707 98.076, 39.722 104.144, 39.377 107.857 C 38.858 113.435, 39.044 114.901, 40.446 116.303 C 41.656 117.513, 43.826 118, 48.006 118 C 51.231 118, 55.024 118.439, 56.435 118.975 C 57.846 119.512, 59 120.558, 59 121.301 C 59 122.044, 57.890 123.694, 56.533 124.969 C 54.849 126.551, 52.441 127.443, 48.949 127.779 C 45.854 128.076, 43.621 128.824, 43.295 129.672 C 43 130.444, 43.507 131.902, 44.422 132.914 C 45.402 133.997, 48.220 135.037, 51.269 135.441 C 54.118 135.819, 57.024 136.605, 57.725 137.187 C 58.426 137.769, 59 139.086, 59 140.114 C 59 141.142, 58.100 142.545, 57 143.232 C 55.900 143.919, 55 145.006, 55 145.648 C 55 146.290, 57.217 148.808, 59.927 151.245 C 62.638 153.681, 68.286 157.348, 72.480 159.393 C 76.674 161.439, 84.245 164.062, 89.303 165.222 C 96.088 166.779, 101.778 167.326, 111 167.307 C 118.983 167.291, 126.391 166.658, 131.500 165.556 C 135.900 164.608, 142.706 162.501, 146.625 160.875 C 150.544 159.248, 156.814 155.799, 160.558 153.209 C 164.303 150.619, 167.508 148.050, 167.680 147.500 C 167.853 146.950, 166.346 145.600, 164.331 144.500 C 162.316 143.400, 160.180 141.686, 159.584 140.691 C 158.725 139.258, 158.899 138.587, 160.424 137.454 C 161.482 136.668, 163.957 135.787, 165.924 135.494 C 167.891 135.202, 171.300 134.409, 173.500 133.732 C 176.423 132.832, 177.500 131.961, 177.500 130.500 C 177.500 128.790, 176.629 128.411, 171.500 127.887 C 168.200 127.551, 164.252 126.686, 162.726 125.966 C 161.200 125.246, 159.677 123.561, 159.341 122.221 C 158.953 120.676, 159.236 119.451, 160.115 118.872 C 160.888 118.362, 165.806 118.245, 171.250 118.608 L 181 119.258 181 110.569 C 181 104.923, 180.120 97.962, 178.486 90.690 C 177.104 84.536, 174.588 75.225, 172.896 70 C 171.203 64.775, 167.985 56.563, 165.744 51.750 C 163.502 46.938, 161.387 43, 161.042 43 C 160.698 43, 158.410 45.079, 155.958 47.621 M 74.923 95.923 C 72.831 98.015, 72 99.819, 72 102.268 C 72 104.313, 72.736 106.356, 73.829 107.345 C 74.835 108.255, 77.249 109, 79.194 109 C 81.257 109, 83.828 108.137, 85.365 106.927 C 87.272 105.428, 88 103.932, 88 101.516 C 88 99.016, 87.228 97.528, 84.923 95.589 C 83.231 94.165, 80.946 93, 79.846 93 C 78.746 93, 76.531 94.315, 74.923 95.923 M 136.747 94.984 C 135.360 96.075, 133.923 98.170, 133.555 99.638 C 133.186 101.106, 133.438 103.642, 134.113 105.274 C 134.811 106.957, 136.644 108.788, 138.351 109.506 C 140.498 110.408, 142.176 110.486, 144.210 109.777 C 145.778 109.230, 147.722 107.504, 148.530 105.941 C 149.339 104.378, 150 102.142, 150 100.973 C 150 99.803, 148.685 97.531, 147.077 95.923 C 145.442 94.288, 143.078 93, 141.712 93 C 140.369 93, 138.135 93.893, 136.747 94.984 M 102.139 118.936 C 100.291 119.407, 98.107 120.465, 97.286 121.286 C 96.232 122.339, 95.999 123.720, 96.494 125.974 C 96.880 127.732, 99.100 131.156, 101.427 133.585 C 103.753 136.013, 106.567 138, 107.679 138 C 108.792 138, 111.231 137.488, 113.101 136.861 C 114.970 136.235, 117.555 134.773, 118.845 133.611 C 120.135 132.450, 121.859 130.214, 122.676 128.642 C 123.495 127.069, 123.896 124.723, 123.570 123.421 C 123.243 122.121, 122.059 120.567, 120.937 119.966 C 119.816 119.366, 115.884 118.696, 112.199 118.477 C 108.515 118.258, 103.988 118.465, 102.139 118.936" stroke="none" fill="#040404" fill-rule="evenodd"/></svg>